<svg xmlns="http://www.w3.org/2000/svg" version="1.1" xmlns:xlink="http://www.w3.org/1999/xlink" xmlns:svgjs="http://svgjs.dev/svgjs" width="1500" height="1500" viewBox="0 0 1500 1500"><rect width="1500" height="1500" fill="#000000"></rect><g transform="matrix(0.6666666666666666,0,0,0.6666666666666666,249.39393939393943,707.1691470901799)"><svg viewBox="0 0 396 34" data-background-color="#111111" preserveAspectRatio="xMidYMid meet" height="128" width="1500" xmlns="http://www.w3.org/2000/svg" xmlns:xlink="http://www.w3.org/1999/xlink"><g id="tight-bounds" transform="matrix(1,0,0,1,0.2400000000000091,0.06541795625648206)"><svg viewBox="0 0 395.52 33.86916408748704" height="33.86916408748704" width="395.52"><g><svg viewBox="0 0 395.52 33.86916408748704" height="33.86916408748704" width="395.52"><g><svg viewBox="0 0 452.25310630423706 38.727332793522265" height="33.86916408748704" width="395.52"><g transform="matrix(1,0,0,1,56.733106304237076,5.35233036437247)"><svg viewBox="0 0 395.52 28.022672064777325" height="28.022672064777325" width="395.52"><g id="textblocktransform"><svg viewBox="0 0 395.52 28.022672064777325" height="28.022672064777325" width="395.52" id="textblock"><g><svg viewBox="0 0 395.52 28.022672064777325" height="28.022672064777325" width="395.52"><g transform="matrix(1,0,0,1,0,0)"><svg width="395.52" viewBox="3.32 -36.25 518.5699999999999 36.74" height="28.022672064777325" data-palette-color="#ffffff"><path d="M32.32-6.59L32.32-3.39Q31.03-2.27 29.46-1.53 27.88-0.78 26.26-0.33 24.63 0.12 23.06 0.31 21.48 0.49 20.21 0.49L20.21 0.49Q16.63 0.49 13.54-0.76 10.45-2 8.18-4.28 5.91-6.57 4.61-9.8 3.32-13.04 3.32-16.99L3.32-16.99Q3.32-20.02 4.08-22.62 4.83-25.22 6.18-27.36 7.52-29.49 9.38-31.15 11.23-32.81 13.43-33.95 15.63-35.08 18.09-35.67 20.56-36.25 23.14-36.25L23.14-36.25Q23.97-36.25 25.02-36.18 26.07-36.11 27.27-35.95 28.47-35.79 29.75-35.53 31.03-35.28 32.35-34.89L32.35-34.89 31.37-30.15 30.88-29.91Q28.34-31.08 26.14-31.52 23.93-31.96 22.31-31.96L22.31-31.96Q19.53-31.96 17.19-30.9 14.84-29.83 13.16-27.98 11.47-26.12 10.53-23.6 9.59-21.07 9.59-18.16L9.59-18.16Q9.59-15.31 10.47-12.74 11.35-10.18 13.05-8.24 14.75-6.3 17.21-5.15 19.68-4 22.88-4L22.88-4Q24.9-4 27.32-4.57 29.74-5.13 32.32-6.59L32.32-6.59ZM46.26 0L40.21 0 40.21-35.77 46.26-35.77 46.26-20.75 64.04-20.75 64.04-35.77 70.09-35.77 70.09 0 64.04 0 64.04-16.46 46.26-16.46 46.26 0ZM102.61 0L99.56-9.23 85.22-9.23 82.22 0 76.8 0 89.47-35.77 96.33-35.77 109 0 102.61 0ZM86.52-13.38L98.21-13.38 93.96-26.61 92.62-31.71 92.13-31.71 90.82-26.61 86.52-13.38ZM126.21-31.47L126.21 0 120.13 0 120.13-31.47 108.54-31.47 109.34-35.77 138.18-35.77 137.37-31.47 126.21-31.47ZM173.89-33.15L180.51-33.15 186.93-9.5 188.02-4.44 188.51-4.44 189.59-9.5 195.93-35.77 201.43-35.77 191.59 0 184.41 0 178.36-21.29 177.06-27.25 176.57-27.25 175.3-21.29 169.23 0 162.05 0 152.11-35.77 158.51-35.77 164.9-9.5 165.88-4.44 166.34-4.44 167.49-9.5 173.89-33.15ZM214.49-35.77L214.49 0 208.43 0 208.43-35.77 214.49-35.77ZM238.53-31.47L238.53 0 232.45 0 232.45-31.47 220.86-31.47 221.66-35.77 250.5-35.77 249.69-31.47 238.53-31.47ZM262.92 0L256.86 0 256.86-35.77 262.92-35.77 262.92-20.75 280.69-20.75 280.69-35.77 286.75-35.77 286.75 0 280.69 0 280.69-16.46 262.92-16.46 262.92 0ZM329.91 0L326.85-9.23 312.52-9.23 309.52 0 304.1 0 316.77-35.77 323.63-35.77 336.3 0 329.91 0ZM313.82-13.38L325.51-13.38 321.26-26.61 319.92-31.71 319.43-31.71 318.11-26.61 313.82-13.38ZM348.02 0L342.82 0 342.82-35.77 351.36-35.77 366.57-12.99 369.09-8.28 369.58-8.28 369.26-13.6 369.26-35.77 374.46-35.77 374.46 0 368.77 0 350.49-27.27 348.19-31.79 347.7-31.79 348.02-26.59 348.02 0ZM411.2-35.77L398.85-15.63 398.85 0 392.77 0 392.77-15.53 380.88-35.77 387.81-35.77 394.11-23.75 396.26-18.95 396.75-18.95 398.99-23.73 405.41-35.77 411.2-35.77ZM432.15-3.81L432.15-3.81Q434.78-3.81 436.93-4.91 439.08-6.01 440.6-7.9 442.13-9.79 442.96-12.33 443.79-14.87 443.79-17.75L443.79-17.75Q443.79-20.8 442.88-23.4 441.96-26 440.35-27.91 438.74-29.81 436.54-30.88 434.34-31.96 431.78-31.96L431.78-31.96Q429.12-31.96 426.97-30.83 424.82-29.71 423.31-27.8 421.79-25.88 420.98-23.34 420.16-20.8 420.16-17.94L420.16-17.94Q420.16-14.89 421.06-12.3 421.96-9.72 423.56-7.84 425.16-5.96 427.36-4.88 429.56-3.81 432.15-3.81ZM431.32 0.49L431.32 0.49Q428.95 0.49 426.73-0.06 424.5-0.61 422.56-1.65 420.62-2.69 419.02-4.2 417.42-5.71 416.26-7.67 415.1-9.62 414.47-11.98 413.83-14.33 413.83-17.04L413.83-17.04Q413.83-19.85 414.52-22.36 415.2-24.88 416.43-27 417.67-29.13 419.4-30.85 421.13-32.57 423.22-33.76 425.31-34.96 427.7-35.61 430.09-36.25 432.68-36.25L432.68-36.25Q436.17-36.25 439.34-35.07 442.5-33.89 444.89-31.63 447.28-29.37 448.7-26.12 450.11-22.88 450.11-18.75L450.11-18.75Q450.11-15.97 449.44-13.45 448.77-10.94 447.55-8.8 446.33-6.67 444.62-4.94 442.91-3.22 440.82-2.01 438.74-0.81 436.33-0.16 433.93 0.49 431.32 0.49ZM463.47 0L458.27 0 458.27-35.77 466.81-35.77 482.02-12.99 484.54-8.28 485.02-8.28 484.71-13.6 484.71-35.77 489.91-35.77 489.91 0 484.22 0 465.93-27.27 463.64-31.79 463.15-31.79 463.47-26.59 463.47 0ZM521.08 0L499.79 0 499.79-35.77 521.54-35.77 520.74-31.47 505.85-31.47 505.85-20.68 519.03-20.68 518.25-16.5 505.85-16.5 505.85-4.3 521.89-4.3 521.08 0Z" opacity="1" transform="matrix(1,0,0,1,0,0)" fill="#ffffff" class="wordmark-text-0" data-fill-palette-color="primary" id="text-0"></path></svg></g></svg></g></svg></g></svg></g><g><svg viewBox="0 0 50.117625973872705 38.727332793522265" height="38.727332793522265" width="50.117625973872705"><g><svg xmlns="http://www.w3.org/2000/svg" xmlns:xlink="http://www.w3.org/1999/xlink" version="1.1" x="0" y="0" viewBox="5.443 15.316 89.50100000000002 69.16000000000001" enable-background="new 0 0 100 100" xml:space="preserve" height="38.727332793522265" width="50.117625973872705" class="icon-icon-0" data-fill-palette-color="accent" id="icon-0"><path d="M87.62 33.304v2.902c2.507 0.452 4.423 2.641 4.423 5.28l-0.006 39.309-8.999-9.002H38.143c-2.625 0-4.809-1.893-5.276-4.38h-2.902c0.498 4.091 3.953 7.282 8.178 7.282h43.694l8.403 8.403c0.941 0.941 1.752 1.378 2.557 1.378 1.34 0 2.094-1.168 2.147-2.387V41.486C94.944 37.247 91.731 33.782 87.62 33.304z" fill="#ffffff" data-fill-palette-color="accent"></path><path d="M76.014 64.512c4.809 0 8.704-3.899 8.704-8.705V24.021c0-4.807-3.896-8.705-8.704-8.705H14.148c-4.807 0-8.705 3.897-8.705 8.705v25.136 6.65 19.982c0 0 0.121 2.697 2.841-0.023l11.256-11.254H76.014z" fill="#ffffff" data-fill-palette-color="accent"></path></svg></g></svg></g></svg></g></svg></g><defs></defs></svg><rect width="395.52" height="33.86916408748704" fill="none" stroke="none" visibility="hidden"></rect></g></svg></g></svg>